<svg width="150" height="150" viewBox="0 0 150 150" fill="none" xmlns="http://www.w3.org/2000/svg">
<path d="M75 150C116.421 150 150 116.421 150 75C150 33.5786 116.421 0 75 0C33.5786 0 0 33.5786 0 75C0 116.421 33.5786 150 75 150Z" fill="white"/>
<path d="M98.823 101.782C98.8108 101.701 98.8108 101.619 98.823 101.539C99.2798 100.146 99.309 98.7033 99.3422 97.2598C99.3633 96.3809 99.3803 95.4995 99.3422 94.6214C99.2612 92.8053 98.5143 91.2548 97.3389 89.9085C96.1239 88.516 94.5515 87.7327 92.7564 87.3673C91.0075 87.0109 89.2538 87.066 87.5008 87.3155C86.5749 87.4467 85.6458 87.5763 84.7304 87.7659C83.6506 87.9895 82.5797 88.2617 81.5129 88.5419C80.7182 88.7501 79.9251 88.9753 79.1499 89.2475C78.2516 89.5626 77.3767 89.945 76.4856 90.2819C76.211 90.3895 75.9243 90.4629 75.6318 90.5007C75.2689 90.5436 74.9789 90.6538 74.8218 91.0045C73.9688 92.8741 72.8031 94.5477 71.5734 96.1808C70.2519 97.9305 68.8097 99.5857 67.2575 101.134C63.5479 104.846 59.8381 108.559 56.1281 112.273C55.813 112.589 55.4517 112.875 55.4225 113.383C55.4185 113.446 55.2718 113.501 55.1908 113.56C55.1228 113.462 55.0248 113.37 54.9972 113.262C54.9802 113.193 55.0628 113.095 55.109 113.019C56.5128 110.588 57.9612 108.178 59.3067 105.713C60.3655 103.775 61.3262 101.782 62.2764 99.788C62.9998 98.2691 63.6632 96.7203 64.308 95.1658C64.8897 93.786 65.3565 92.3606 65.7038 90.9041C65.9322 89.9207 66.2262 88.9534 66.4717 87.9733C66.6164 87.3922 66.7409 86.806 66.8451 86.2146C67.1967 84.2041 67.5564 82.1935 67.6155 80.1457C67.6487 78.9857 67.7378 77.8249 67.7103 76.6665C67.677 75.0365 67.4416 73.417 67.0096 71.845C66.6626 70.5617 66.2398 69.3001 65.7435 68.0669C63.7295 63.2177 60.2297 59.132 55.7473 56.3972C54.4699 55.6252 53.1122 54.974 51.7505 54.3559C50.3046 53.6989 48.8295 53.0914 47.3325 52.5608C45.8744 52.0432 44.3749 51.6163 42.8771 51.2104C41.4879 50.8337 40.0768 50.5405 38.677 50.206C38.5036 50.1646 38.3368 50.095 38.0962 50.0156C38.4688 49.681 38.8625 49.6227 39.2222 49.4988C40.3741 49.1035 41.5786 49.1116 42.7751 49.0549C43.0918 49.0395 43.4077 49.0046 43.7245 48.9787C43.8355 48.9622 43.9476 48.9549 44.0598 48.9569C45.8314 49.101 47.6144 49.1456 49.3617 49.5028C50.3507 49.7045 51.3366 49.9435 52.3046 50.2319C53.47 50.5753 54.6243 50.9569 55.7676 51.3765C56.8207 51.7629 57.8632 52.1865 58.8798 52.6548C60.423 53.3717 61.9581 54.1129 63.4623 54.9051C65.1019 55.7678 66.6953 56.718 68.3275 57.5953C70.0084 58.4985 71.7144 59.3564 73.4058 60.241C74.1016 60.6055 74.7691 61.0291 75.4828 61.3523C76.4014 61.7687 77.3402 62.1462 78.2929 62.4759C79.1227 62.7667 79.9708 63.0027 80.8316 63.1823C81.93 63.4075 83.043 63.5695 84.1528 63.708C84.8046 63.7812 85.4608 63.8083 86.1164 63.789C87.3526 63.7679 88.5928 63.7623 89.8224 63.6489C91.7066 63.4747 93.5795 63.1928 95.3397 62.4338C96.8606 61.7907 98.2762 60.9226 99.5391 59.8586C100.889 58.7207 102.026 57.3517 102.897 55.8156C103.226 55.2332 103.494 54.6151 103.806 53.98C104.01 54.1631 103.964 54.3794 103.926 54.5608C103.827 55.1134 103.697 55.6602 103.538 56.1988C103.02 57.8254 102.381 59.3985 101.482 60.8623C100.116 63.0898 98.2939 65.0025 96.1352 66.4743C94.7889 67.3946 93.3446 68.1626 91.8289 68.7644C90.3873 69.3432 88.896 69.79 87.3736 70.0994C86.8422 70.2079 86.3133 70.3254 85.7851 70.4485C84.246 70.8041 82.698 71.056 81.1192 71.1144C80.5594 71.1354 80.0005 71.1873 79.4407 71.2197C78.7457 71.261 78.5497 71.4562 78.531 72.152C78.5158 72.4142 78.525 72.6773 78.5586 72.9378C78.6987 73.7681 78.8648 74.5944 79.0146 75.4231C79.0738 75.7544 79.107 76.0914 79.1685 76.4219C79.3589 77.4514 79.5598 78.4794 79.7534 79.5082C79.8255 79.8946 80.0588 80.0671 80.4428 80.1319C80.8129 80.1964 81.1933 80.1686 81.5501 80.0509C82.6542 79.6945 83.7486 79.3048 84.8624 78.9833C85.8847 78.6876 86.9224 78.4357 87.965 78.2178C88.8971 78.0182 89.8388 77.8659 90.7864 77.7617C91.5446 77.6807 92.3142 77.7196 93.0788 77.7074C93.1914 77.7074 93.304 77.7269 93.4158 77.7196C95.3802 77.594 97.0214 78.3757 98.5386 79.5252C100.011 80.6406 100.962 82.106 101.507 83.8541C101.848 84.9469 102.155 86.0413 102.087 87.2094C101.997 88.8925 101.813 90.5693 101.535 92.2317C101.303 93.5789 101.112 94.9349 100.813 96.2658C100.48 97.7649 100.02 99.2327 99.4362 100.653C99.2742 101.041 99.0951 101.422 98.9242 101.806L98.823 101.782Z" fill="#CD1F45"/>
<path d="M114.465 45.8906V51.1762C114.465 51.2888 114.472 51.4014 114.465 51.5132C114.436 51.8534 114.353 51.9425 114.01 51.9417C113.767 51.9417 113.524 51.8915 113.281 51.8761C111.637 51.7724 109.994 51.6598 108.35 51.5756C107.471 51.5302 106.59 51.5164 105.709 51.5197C103.573 51.527 101.436 51.5302 99.3009 51.5796C98.1992 51.6047 97.0992 51.7279 95.9975 51.8016C95.232 51.8534 94.4665 51.9061 93.6994 51.9425C93.1429 51.9693 92.997 51.8275 92.9946 51.2605C92.9889 49.8364 92.9946 48.4115 92.9946 46.9874C92.9946 44.9072 92.9946 42.8267 92.9946 40.7459C92.9946 40.6147 92.9881 40.4826 92.9995 40.3522C93.0311 39.995 93.1291 39.8921 93.4807 39.8573C93.6297 39.8419 93.7804 39.8508 93.9302 39.85H113.724C113.78 39.85 113.836 39.85 113.892 39.85C114.414 39.8597 114.466 39.9067 114.467 40.4365C114.468 42.2542 114.468 44.0723 114.465 45.8906Z" fill="#CD1F45"/>
<path d="M78.7109 50.1265C78.4176 50.0957 78.2459 50.0617 78.0734 50.0617C74.9071 50.0617 71.7403 50.0658 68.573 50.0739C67.6577 50.0739 67.3685 49.7596 67.5726 48.8636C68.1477 46.3395 69.5273 44.4342 71.9469 43.3795C73.2114 42.8279 74.5488 42.8409 75.8708 43.045C77.2181 43.2388 78.469 43.8554 79.4432 44.8061C80.2881 45.6291 80.8908 46.6141 81.3233 47.7053C81.4414 47.9997 81.5404 48.3014 81.6198 48.6085C81.7324 49.058 81.7875 49.1293 82.2679 49.1374C82.9799 49.1488 83.6919 49.1374 84.404 49.1374C84.5725 49.1311 84.7412 49.1411 84.9078 49.1674C85.1508 49.2168 85.3218 49.3626 85.3193 49.6275C85.3193 49.8754 85.1363 49.988 84.9216 50.0325C84.7745 50.0598 84.6249 50.0718 84.4753 50.0682C82.826 50.0682 81.1767 50.0682 79.5282 50.0682C79.3338 50.0682 79.1394 50.0925 78.804 50.116C79.0268 50.372 79.1467 50.5299 79.286 50.6668C79.5678 50.9441 79.7455 51.31 79.7891 51.7029C80.0118 53.2469 79.7891 54.6888 78.8778 55.9881C77.8247 57.494 76.399 58.3583 74.5488 58.4353C73.5767 58.4758 72.6103 58.4555 71.6682 58.1048C70.4313 57.6447 69.5167 56.8208 68.863 55.7119C68.1899 54.5697 67.8747 53.3335 68.1161 51.9945C68.2409 51.3043 68.5844 50.9908 69.3045 50.9876C71.2349 50.9803 73.1652 50.9722 75.0948 50.9876C76.0129 50.9834 76.9282 50.8851 77.8263 50.6944C78.1479 50.636 78.3804 50.4392 78.7109 50.1265Z" fill="#CD1F45"/>
<path d="M63.1343 79.9769H60.7154C60.5844 79.9716 60.4533 79.9741 60.3226 79.9842C59.9937 80.0215 59.8989 80.1713 60.0147 80.4832C60.1508 80.851 60.3128 81.2122 60.4433 81.5792C60.6666 82.1971 60.7407 82.8591 60.6595 83.5112C60.5785 84.1843 60.2343 84.7101 59.7685 85.1524C58.5145 86.3342 56.9965 86.6404 55.3407 86.3966C54.9178 86.335 54.5039 86.199 54.0924 86.0726C53.382 85.8555 53.0004 85.2876 52.7404 84.6566C52.4852 84.0377 52.2495 83.3937 52.1313 82.7384C51.9174 81.5509 52.3743 80.5342 53.1292 79.6367C53.2256 79.5217 53.3366 79.4188 53.4338 79.3054C53.7578 78.9238 53.7684 78.7011 53.4338 78.3244C53.0752 77.9427 52.7891 77.4988 52.5897 77.0145C52.2965 76.2644 52.2779 75.5054 52.4277 74.7464C52.6416 73.6836 53.0636 72.7107 53.8947 71.9622C55.1349 70.8451 56.5347 70.4968 58.0925 71.1683C58.8077 71.477 59.5425 71.7888 60.0755 72.411C60.8207 73.2785 61.2954 74.2538 61.2436 75.4211C61.229 75.7492 61.1075 76.0732 61.0297 76.3973C60.9989 76.5244 60.9431 76.6451 60.9123 76.7723C60.764 77.3855 60.9382 77.6269 61.5603 77.6318C62.8564 77.6407 64.1468 77.6318 65.4405 77.6318C65.5904 77.6318 65.7402 77.6269 65.8901 77.6318C66.6564 77.6626 66.8014 77.9639 66.5892 78.5366C66.4871 78.8129 66.4952 79.128 66.4271 79.4188C66.3202 79.874 66.1979 79.9664 65.724 79.9696C64.8613 79.9753 63.9994 79.9696 63.1375 79.9696L63.1343 79.9769ZM56.7348 76.4005C57.391 76.4005 58.0082 76.0141 58.1929 75.4851C58.3679 74.9878 58.154 74.4086 57.6502 74.0116C57.4363 73.8431 57.1741 73.7475 56.902 73.7387C56.6298 73.73 56.362 73.8086 56.1378 73.963C55.6671 74.2871 55.3164 75.021 55.5708 75.6917C55.7797 76.2434 55.9806 76.3989 56.7316 76.4005H56.7348ZM57.6105 82.5918C57.6712 81.9875 56.973 81.1288 56.2164 81.2147C55.6777 81.2738 54.8393 82.3172 54.943 82.8502C55.0604 83.4602 55.723 83.9478 56.3557 83.8911C57.0151 83.8295 57.6016 83.2236 57.6072 82.5918H57.6105Z" fill="#CD1F45"/>
<path d="M103.782 38.8812H93.944C93.8314 38.8812 93.7188 38.8868 93.607 38.8812C93.2538 38.8593 93.1088 38.7394 93.1113 38.481C93.1113 38.1448 93.3996 37.8548 93.7172 37.8799C94.4057 37.935 95.0943 37.9739 95.782 38.0638C97.3609 38.2584 98.9503 38.3544 100.541 38.3514C102.771 38.3644 105.002 38.3911 107.231 38.3425C108.894 38.306 110.552 38.1545 112.216 38.0646C112.814 38.0314 113.414 38.0112 114.013 38.016C114.351 38.016 114.482 38.1959 114.468 38.5175C114.458 38.7402 114.353 38.8682 114.127 38.8812C114.015 38.8877 113.901 38.8812 113.79 38.8812H103.782Z" fill="#CD1F45"/>
</svg>
