<svg width="50" height="50" viewBox="0 0 50 50" fill="none" xmlns="http://www.w3.org/2000/svg">
<path d="M25 50C38.8071 50 50 38.8071 50 25C50 11.1929 38.8071 0 25 0C11.1929 0 0 11.1929 0 25C0 38.8071 11.1929 50 25 50Z" fill="#CD1F45"/>
<path d="M32.941 33.9271C32.937 33.9003 32.937 33.873 32.941 33.8461C33.0933 33.3819 33.103 32.901 33.1141 32.4199C33.1211 32.1269 33.1268 31.8331 33.1141 31.5404C33.0871 30.935 32.8381 30.4182 32.4463 29.9694C32.0413 29.5053 31.5172 29.2442 30.9188 29.1224C30.3358 29.0036 29.7513 29.0219 29.1669 29.1051C28.8583 29.1489 28.5486 29.1921 28.2435 29.2552C27.8835 29.3298 27.5266 29.4205 27.171 29.5139C26.9061 29.5833 26.6417 29.6584 26.3833 29.7491C26.0839 29.8541 25.7922 29.9816 25.4952 30.0939C25.4037 30.1298 25.3081 30.1543 25.2106 30.1668C25.0896 30.1811 24.993 30.2179 24.9406 30.3348C24.6563 30.958 24.2677 31.5158 23.8578 32.0602C23.4173 32.6434 22.9366 33.1952 22.4192 33.7114C21.1826 34.9486 19.946 36.1863 18.7094 37.4244C18.6043 37.5297 18.4839 37.625 18.4742 37.7943C18.4728 37.8154 18.4239 37.8335 18.3969 37.8532C18.3743 37.8205 18.3416 37.79 18.3324 37.7538C18.3267 37.7309 18.3543 37.6982 18.3697 37.6728C18.8376 36.8628 19.3204 36.0592 19.7689 35.2375C20.1218 34.5916 20.4421 33.9274 20.7588 33.2626C20.9999 32.7563 21.2211 32.24 21.436 31.7219C21.6299 31.2619 21.7855 30.7868 21.9013 30.3013C21.9774 29.9735 22.0754 29.6511 22.1572 29.3244C22.2055 29.1307 22.247 28.9353 22.2817 28.7382C22.3989 28.068 22.5188 27.3978 22.5385 26.7152C22.5496 26.3285 22.5793 25.9416 22.5701 25.5554C22.559 25.0121 22.4805 24.4723 22.3365 23.9483C22.2209 23.5205 22.0799 23.1 21.9145 22.6889C21.2432 21.0725 20.0766 19.7106 18.5824 18.799C18.1566 18.5417 17.7041 18.3246 17.2502 18.1186C16.7682 17.8996 16.2765 17.6971 15.7775 17.5202C15.2915 17.3477 14.7916 17.2054 14.2924 17.0701C13.8293 16.9445 13.3589 16.8468 12.8923 16.7353C12.8345 16.7215 12.7789 16.6983 12.6987 16.6718C12.8229 16.5603 12.9542 16.5408 13.0741 16.4995C13.458 16.3678 13.8595 16.3705 14.2584 16.3516C14.3639 16.3464 14.4692 16.3348 14.5748 16.3262C14.6118 16.3207 14.6492 16.3182 14.6866 16.3189C15.2771 16.367 15.8715 16.3818 16.4539 16.5009C16.7836 16.5681 17.1122 16.6478 17.4349 16.7439C17.8233 16.8584 18.2081 16.9856 18.5892 17.1254C18.9402 17.2542 19.2877 17.3955 19.6266 17.5515C20.141 17.7905 20.6527 18.0376 21.1541 18.3016C21.7006 18.5892 22.2318 18.9059 22.7758 19.1984C23.3361 19.4994 23.9048 19.7854 24.4686 20.0803C24.7005 20.2018 24.923 20.343 25.1609 20.4507C25.4671 20.5895 25.7801 20.7153 26.0976 20.8252C26.3742 20.9222 26.6569 21.0008 26.9439 21.0607C27.31 21.1358 27.681 21.1898 28.0509 21.2359C28.2682 21.2603 28.4869 21.2694 28.7055 21.2629C29.1175 21.2559 29.5309 21.254 29.9408 21.2162C30.5689 21.1582 31.1932 21.0642 31.7799 20.8112C32.2869 20.5968 32.7587 20.3075 33.1797 19.9528C33.6297 19.5735 34.0087 19.1172 34.2989 18.6051C34.4088 18.411 34.4979 18.205 34.6019 17.9933C34.6699 18.0543 34.6545 18.1264 34.6421 18.1869C34.6089 18.3711 34.5657 18.5533 34.5128 18.7329C34.34 19.2751 34.1269 19.7994 33.8272 20.2874C33.372 21.0299 32.7646 21.6674 32.0451 22.1581C31.5963 22.4648 31.1149 22.7208 30.6096 22.9214C30.1291 23.1143 29.632 23.2633 29.1245 23.3664C28.9474 23.4026 28.7711 23.4417 28.595 23.4828C28.082 23.6013 27.566 23.6853 27.0397 23.7047C26.8531 23.7117 26.6668 23.729 26.4802 23.7398C26.2486 23.7536 26.1832 23.8187 26.177 24.0506C26.1719 24.138 26.175 24.2257 26.1862 24.3125C26.2329 24.5893 26.2883 24.8647 26.3382 25.141C26.3579 25.2514 26.369 25.3637 26.3895 25.4739C26.453 25.8171 26.5199 26.1597 26.5845 26.5027C26.6085 26.6315 26.6863 26.689 26.8143 26.7106C26.9376 26.7321 27.0644 26.7228 27.1834 26.6836C27.5514 26.5648 27.9162 26.4349 28.2875 26.3277C28.6282 26.2291 28.9741 26.1452 29.3217 26.0725C29.6324 26.006 29.9463 25.9553 30.2621 25.9205C30.5149 25.8935 30.7714 25.9065 31.0263 25.9024C31.0638 25.9024 31.1014 25.9089 31.1386 25.9065C31.7934 25.8646 32.3405 26.1252 32.8462 26.5083C33.3371 26.8802 33.6538 27.3686 33.8356 27.9513C33.9492 28.3156 34.0516 28.6804 34.0289 29.0697C33.999 29.6308 33.9376 30.1897 33.845 30.7439C33.7678 31.1929 33.7041 31.6449 33.6044 32.0886C33.4935 32.5883 33.3399 33.0775 33.1454 33.551C33.0914 33.6803 33.0317 33.8072 32.9747 33.9352L32.941 33.9271Z" fill="white"/>
<path d="M38.1551 15.2969V17.0587C38.1551 17.0963 38.1575 17.1338 38.1551 17.1711C38.1454 17.2845 38.1178 17.3142 38.0033 17.3139C37.9223 17.3139 37.8413 17.2972 37.7603 17.292C37.2124 17.2575 36.6648 17.2199 36.1167 17.1919C35.8237 17.1767 35.5299 17.1721 35.2364 17.1732C34.5244 17.1757 33.8121 17.1767 33.1003 17.1932C32.7331 17.2016 32.3664 17.2426 31.9992 17.2672C31.744 17.2845 31.4888 17.302 31.2331 17.3142C31.0476 17.3231 30.999 17.2758 30.9982 17.0868C30.9963 16.6121 30.9982 16.1372 30.9982 15.6625C30.9982 14.9691 30.9982 14.2756 30.9982 13.582C30.9982 13.5382 30.9961 13.4942 30.9998 13.4507C31.0104 13.3317 31.043 13.2974 31.1602 13.2858C31.2099 13.2806 31.2601 13.2836 31.3101 13.2833H37.908C37.9266 13.2833 37.9453 13.2833 37.9642 13.2833C38.1381 13.2866 38.1553 13.3022 38.1556 13.4788C38.1562 14.0847 38.156 14.6908 38.1551 15.2969Z" fill="white"/>
<path d="M26.237 16.7088C26.1392 16.6985 26.082 16.6872 26.0244 16.6872C24.969 16.6872 23.9134 16.6885 22.8577 16.6912C22.5525 16.6912 22.4561 16.5865 22.5242 16.2878C22.7159 15.4464 23.1757 14.8114 23.9823 14.4598C24.4038 14.2759 24.8496 14.2802 25.2903 14.3483C25.7394 14.4129 26.1563 14.6184 26.4811 14.9353C26.7627 15.2096 26.9636 15.538 27.1078 15.9017C27.1471 15.9998 27.1801 16.1004 27.2066 16.2028C27.2441 16.3526 27.2625 16.3764 27.4226 16.3791C27.66 16.3829 27.8973 16.3791 28.1346 16.3791C28.1908 16.377 28.2471 16.3803 28.3026 16.3891C28.3836 16.4055 28.4406 16.4541 28.4398 16.5424C28.4398 16.6251 28.3787 16.6626 28.3072 16.6775C28.2581 16.6866 28.2083 16.6905 28.1584 16.6893C27.6087 16.6893 27.0589 16.6893 26.5094 16.6893C26.4446 16.6893 26.3798 16.6974 26.268 16.7053C26.3423 16.7906 26.3822 16.8432 26.4287 16.8889C26.5226 16.9813 26.5818 17.1033 26.5963 17.2342C26.6706 17.7489 26.5963 18.2295 26.2926 18.6626C25.9416 19.1646 25.4663 19.4527 24.8496 19.4784C24.5256 19.4919 24.2034 19.4851 23.8894 19.3682C23.4771 19.2148 23.1722 18.9402 22.9543 18.5706C22.7299 18.1898 22.6249 17.7778 22.7054 17.3314C22.747 17.1014 22.8614 16.9969 23.1015 16.9958C23.7449 16.9934 24.3884 16.9907 25.0316 16.9958C25.3376 16.9944 25.6427 16.9617 25.9421 16.8981C26.0493 16.8786 26.1268 16.813 26.237 16.7088Z" fill="white"/>
<path d="M21.0448 26.659H20.2385C20.1948 26.6572 20.1511 26.658 20.1075 26.6614C19.9979 26.6738 19.9663 26.7238 20.0049 26.8278C20.0503 26.9503 20.1043 27.0708 20.1478 27.1931C20.2222 27.3991 20.2469 27.6197 20.2198 27.8371C20.1928 28.0615 20.0781 28.2367 19.9228 28.3841C19.5048 28.7781 18.9988 28.8802 18.4469 28.7989C18.3059 28.7784 18.168 28.733 18.0308 28.6909C17.794 28.6185 17.6668 28.4292 17.5801 28.2189C17.4951 28.0126 17.4165 27.7979 17.3771 27.5795C17.3058 27.1836 17.4581 26.8448 17.7097 26.5456C17.7419 26.5072 17.7789 26.4729 17.8113 26.4351C17.9193 26.308 17.9228 26.2337 17.8113 26.1081C17.6917 25.9809 17.5964 25.833 17.5299 25.6715C17.4322 25.4215 17.426 25.1685 17.4759 24.9155C17.5472 24.5612 17.6879 24.2369 17.9649 23.9874C18.3783 23.6151 18.8449 23.499 19.3642 23.7228C19.6026 23.8257 19.8475 23.9296 20.0252 24.137C20.2736 24.4262 20.4318 24.7513 20.4145 25.1404C20.4097 25.2498 20.3692 25.3578 20.3432 25.4658C20.333 25.5082 20.3144 25.5484 20.3041 25.5908C20.2547 25.7952 20.3127 25.8757 20.5201 25.8773C20.9521 25.8803 21.3823 25.8773 21.8135 25.8773C21.8635 25.8773 21.9134 25.8757 21.9634 25.8773C22.2188 25.8875 22.2671 25.988 22.1964 26.1789C22.1624 26.271 22.1651 26.376 22.1424 26.4729C22.1067 26.6247 22.066 26.6555 21.908 26.6566C21.6204 26.6584 21.3331 26.6566 21.0458 26.6566L21.0448 26.659ZM18.9116 25.4669C19.1303 25.4669 19.3361 25.3381 19.3976 25.1617C19.456 24.9959 19.3847 24.8029 19.2167 24.6706C19.1454 24.6144 19.058 24.5825 18.9673 24.5796C18.8766 24.5767 18.7873 24.6029 18.7126 24.6544C18.5557 24.7624 18.4388 25.007 18.5236 25.2306C18.5932 25.4145 18.6602 25.4663 18.9105 25.4669H18.9116ZM19.2035 27.5306C19.2237 27.3292 18.991 27.043 18.7388 27.0716C18.5592 27.0913 18.2798 27.4391 18.3143 27.6167C18.3535 27.8201 18.5743 27.9826 18.7852 27.9637C19.005 27.9432 19.2005 27.7412 19.2024 27.5306H19.2035Z" fill="white"/>
<path d="M34.5941 12.9604H31.3147C31.2771 12.9604 31.2396 12.9623 31.2023 12.9604C31.0846 12.9531 31.0363 12.9132 31.0371 12.827C31.0371 12.715 31.1332 12.6183 31.2391 12.6267C31.4686 12.645 31.6981 12.658 31.9273 12.688C32.4536 12.7528 32.9834 12.7848 33.5137 12.7838C34.2571 12.7881 35.0007 12.797 35.7435 12.7808C36.2979 12.7687 36.8506 12.7182 37.4052 12.6882C37.6048 12.6772 37.8046 12.6704 38.0044 12.672C38.117 12.672 38.1607 12.732 38.1561 12.8392C38.1526 12.9134 38.1175 12.9561 38.0422 12.9604C38.0049 12.9626 37.9671 12.9604 37.9299 12.9604H34.5941Z" fill="white"/>
</svg>
